<?xml version="1.0" standalone="no"?>
<!DOCTYPE svg PUBLIC "-//W3C//DTD SVG 20010904//EN"
 "http://www.w3.org/TR/2001/REC-SVG-20010904/DTD/svg10.dtd">
<svg version="1.0" xmlns="http://www.w3.org/2000/svg"
 width="1770.000000pt" height="1770.000000pt" viewBox="0 0 1770.000000 1770.000000"
 preserveAspectRatio="xMidYMid meet">
<metadata>
Created by potrace 1.14, written by Peter Selinger 2001-2017
</metadata>
<g transform="translate(0.000000,1770.000000) scale(0.100000,-0.100000)"
fill="#000000" stroke="none">
<path d="M8548 17695 c-2 -2 -68 -6 -148 -9 -80 -4 -170 -9 -200 -11 -138 -12
-189 -16 -240 -21 -63 -6 -293 -33 -330 -39 -14 -2 -45 -6 -70 -10 -25 -3 -56
-8 -70 -10 -14 -3 -38 -7 -55 -9 -158 -25 -433 -79 -605 -119 -138 -32 -454
-115 -483 -127 -12 -5 -56 -19 -97 -30 -280 -81 -763 -263 -1038 -391 -34 -16
-64 -29 -67 -29 -10 0 -443 -218 -537 -271 -313 -174 -574 -336 -833 -518
-116 -82 -329 -239 -370 -272 -11 -9 -74 -61 -140 -114 -125 -102 -286 -240
-390 -335 -101 -92 -516 -510 -590 -594 -39 -44 -77 -87 -85 -96 -8 -8 -51
-58 -95 -110 -44 -52 -82 -97 -85 -100 -36 -34 -311 -397 -432 -570 -184 -265
-468 -722 -495 -798 -4 -9 -14 -28 -23 -42 -48 -69 -274 -537 -370 -765 -4
-11 -15 -36 -23 -55 -53 -121 -156 -397 -220 -590 -64 -192 -170 -547 -182
-612 -3 -11 -14 -58 -25 -104 -12 -47 -24 -97 -26 -112 -3 -15 -11 -52 -19
-82 -7 -30 -25 -118 -40 -195 -14 -77 -30 -158 -35 -180 -5 -22 -12 -67 -15
-100 -4 -33 -9 -62 -10 -65 -2 -3 -7 -33 -10 -65 -4 -33 -9 -68 -11 -79 -2
-10 -6 -44 -9 -75 -4 -31 -8 -63 -10 -71 -2 -8 -7 -46 -11 -85 -4 -38 -8 -81
-9 -95 -3 -28 -14 -148 -20 -225 -26 -313 -26 -1153 0 -1316 2 -13 6 -67 10
-121 3 -53 7 -105 9 -115 2 -10 7 -49 10 -88 4 -38 9 -81 11 -95 3 -14 6 -45
9 -70 3 -25 7 -62 10 -82 3 -21 8 -55 11 -75 6 -41 22 -141 30 -186 3 -15 9
-53 15 -85 6 -31 12 -68 15 -82 3 -14 9 -47 14 -75 17 -91 72 -331 97 -428 9
-32 17 -67 19 -78 30 -156 259 -856 335 -1024 5 -11 23 -55 39 -97 17 -42 39
-96 50 -120 10 -24 36 -81 56 -128 47 -107 242 -503 290 -590 20 -36 53 -94
72 -130 114 -209 364 -602 536 -840 160 -222 412 -538 537 -675 21 -22 84 -91
141 -154 166 -184 427 -440 609 -601 41 -36 86 -76 100 -90 15 -14 42 -37 61
-51 19 -15 43 -36 54 -46 43 -41 340 -273 473 -370 260 -189 624 -424 862
-556 36 -19 94 -52 130 -71 230 -127 629 -316 890 -421 63 -25 124 -50 135
-55 93 -40 500 -177 725 -244 172 -51 535 -140 720 -175 52 -11 113 -22 135
-27 22 -4 45 -9 50 -9 6 -1 30 -5 55 -9 25 -4 56 -9 70 -11 22 -4 113 -18 190
-30 14 -2 50 -7 80 -10 30 -4 69 -9 85 -11 17 -2 53 -6 80 -9 28 -3 66 -7 85
-10 19 -2 69 -7 110 -10 41 -4 92 -8 112 -10 51 -5 231 -15 363 -21 123 -4
587 -4 680 1 33 1 114 6 180 9 66 3 140 8 165 11 25 2 77 7 115 10 81 7 145
14 195 20 19 3 76 9 125 15 50 6 101 13 115 15 14 2 86 13 160 25 106 16 352
61 460 85 15 3 191 43 220 50 8 1 44 11 80 20 36 9 72 18 80 20 8 2 49 13 90
25 41 12 98 27 125 35 28 8 95 28 150 45 55 17 107 33 115 35 88 22 526 187
750 282 177 76 665 312 775 375 410 238 416 242 668 409 254 170 511 362 752
564 189 159 223 188 368 325 327 307 530 526 881 950 64 79 290 385 383 520
101 148 303 465 303 477 0 4 6 14 14 22 8 9 26 39 41 66 14 28 34 64 44 80 79
134 277 520 338 660 12 28 43 97 69 155 144 325 289 729 388 1081 26 90 51
178 56 194 5 17 19 71 30 120 12 50 23 98 26 107 15 62 72 338 79 378 3 19 8
42 10 50 2 8 6 31 9 50 3 19 8 45 10 56 2 12 7 39 11 60 3 22 7 50 10 64 2 14
9 63 15 110 17 127 20 153 25 180 3 14 7 57 10 95 3 39 8 81 10 95 2 14 7 59
10 100 3 41 8 93 10 115 20 198 27 912 11 1165 -4 74 -9 158 -11 185 -3 47
-11 147 -20 225 -23 210 -40 349 -49 395 -2 11 -7 40 -10 65 -3 25 -8 56 -11
70 -3 14 -7 41 -10 62 -4 31 -79 416 -89 458 -2 8 -21 83 -41 165 -20 83 -38
157 -40 165 -2 8 -18 65 -35 125 -18 61 -33 115 -34 120 -3 14 -76 246 -83
265 -3 8 -29 83 -58 165 -80 224 -151 405 -220 560 -12 27 -46 104 -76 170
-245 548 -627 1182 -1018 1690 -104 136 -273 345 -311 386 -8 9 -40 44 -70 79
-30 35 -77 89 -105 119 -64 72 -525 533 -590 590 -233 206 -527 449 -605 501
-12 8 -28 20 -34 25 -25 23 -309 227 -347 250 -9 6 -68 44 -130 85 -63 42
-128 85 -146 95 -18 11 -65 40 -105 65 -40 24 -85 51 -100 60 -153 86 -298
168 -321 180 -151 80 -561 280 -574 280 -2 0 -25 9 -51 21 -26 12 -62 27 -79
35 -18 8 -48 21 -67 29 -229 101 -913 334 -1086 370 -8 2 -97 24 -197 49 -157
39 -311 73 -418 92 -16 3 -75 14 -130 24 -55 10 -120 22 -145 25 -25 4 -54 9
-64 11 -11 2 -42 6 -70 9 -28 3 -76 10 -106 15 -30 5 -84 12 -120 15 -36 3
-72 8 -80 10 -8 2 -51 7 -95 10 -44 4 -98 8 -120 10 -41 4 -126 10 -275 21
-80 6 -777 13 -782 9z"/>
</g>
</svg>
